# xmcd
#
# Track frame offsets:
#  150
#  18599
#  37303
#  50641
#  57591
#  77369
#  94387
#  118429
#  121355
#
# Disc length: 1771 seconds
#
# Revision: 0
# Processed by: cddbd v1.5.1PL0 Copyright (c) Steve Scherf et al.
# Submitted via: Collectorz.com Music Collector 6.9
#
DISCID=8406e909
DTITLE=todd snider - Live At John Henry's, Eugene (April 22nd 2005) - Disc 2
DYEAR=2005
DGENRE=
TTITLE0=Good News Blues
TTITLE1=Anywhere
TTITLE2=Ccrwrswam
TTITLE3=Intro To Sideshow Blues
TTITLE4=Sideshow Blues
TTITLE5=Beer Run
TTITLE6=Enjoy Yourself
TTITLE7=Encore Clapping
TTITLE8=What Made Milwaukee Famous
EXTD=
EXTT0=
EXTT1=
EXTT2=
EXTT3=
EXTT4=
EXTT5=
EXTT6=
EXTT7=
EXTT8=
PLAYORDER=
